<?xml version="1.0" encoding="UTF-8"?>
<svg version="1.1" xmlns="http://www.w3.org/2000/svg" width="1265" height="259">
<path d="M0 0 C94.29908532 -0.06039235 94.29908532 -0.06039235 123.4702301 -0.07695007 C124.51060351 -0.07754207 125.55097693 -0.07813408 126.62287681 -0.07874402 C161.63468655 -0.09861303 196.64649687 -0.1143677 231.65830994 -0.12702942 C232.80064068 -0.12744359 233.94297143 -0.12785776 235.11991826 -0.12828448 C259.9440666 -0.13726258 284.76821511 -0.14557322 309.5923639 -0.15319599 C321.76559615 -0.1569381 333.93882836 -0.16082774 346.11206055 -0.16479492 C347.32346266 -0.1651872 348.53486477 -0.16557948 349.78297603 -0.16598364 C389.06902194 -0.17877446 428.35505493 -0.20131345 467.64109301 -0.22889166 C508.00258531 -0.25717346 548.36407045 -0.27565262 588.72557249 -0.28174497 C594.42246559 -0.28260947 600.11935868 -0.28358638 605.81625175 -0.28463173 C606.93751483 -0.284834 608.05877791 -0.28503627 609.21401866 -0.28524467 C627.2848833 -0.28879392 645.35572587 -0.30271914 663.4265815 -0.3204961 C681.58078924 -0.33813466 699.73497503 -0.34490976 717.88919104 -0.34050413 C728.68340384 -0.33821726 739.47753648 -0.34435136 750.27173485 -0.36239263 C757.47578383 -0.37361392 764.67978011 -0.37401103 771.88383269 -0.36549544 C775.99276271 -0.36095163 780.10154077 -0.36121959 784.21045471 -0.37464955 C787.94705055 -0.38677015 791.68337553 -0.38512862 795.4199671 -0.37241993 C797.40000532 -0.36925994 799.3800502 -0.38086042 801.36005357 -0.39302543 C808.54119001 -0.35193476 814.30513674 -0.21810671 819.9375 4.6875 C820.288125 5.120625 820.63875 5.55375 821 6 C821.66 5.175 822.32 4.35 823 3.5 C826.37125732 0.6906189 827.82448422 0.22694978 832.06640625 0.515625 C835.50163404 1.37616691 836.98605167 3.19267808 839 6 C840.9495098 11.36115196 839.31884036 16.01212705 837 21 C835 23.5625 835 23.5625 833 25 C832.01 25 831.02 25 830 25 C832.04547964 30.8353277 834.05553501 36.55273977 837 42 C837.38671875 41.27554688 837.7734375 40.55109375 838.171875 39.8046875 C842.68635762 31.42384106 842.68635762 31.42384106 845.3125 27.875 C848.05540357 23.20190503 848.1402709 18.49408507 847.83984375 13.15234375 C847.45920447 5.90067745 847.45920447 5.90067745 849.0859375 3.19140625 C851.73980213 0.71306176 854.01396039 -0.00195935 857.5625 -0.5 C861.20759371 0.03019545 863.13639535 0.70911628 866 3 C868.56959949 7.2556174 868.64144696 11.15351189 868 16 C867.07889992 18.96743594 866.07869516 21.66519054 864 24 C861.35546875 24.71875 861.35546875 24.71875 859 25 C859.19335938 25.7734375 859.38671875 26.546875 859.5859375 27.34375 C860.12837075 29.51348301 860.66723669 31.68410999 861.203125 33.85546875 C861.79412946 36.18761871 862.44409681 38.50499474 863.125 40.8125 C864.48068205 45.97283812 864.34386819 51.40166286 864.4609375 56.70703125 C864.67394967 60.0796776 864.67394967 60.0796776 867.0390625 61.94921875 C867.68617188 62.29597656 868.33328125 62.64273438 869 63 C869.07476563 62.34257813 869.14953125 61.68515625 869.2265625 61.0078125 C870.75499436 49.94915847 873.11496669 34.63455039 882.26171875 27.19140625 C882.83535156 26.79824219 883.40898438 26.40507813 884 26 C884.56332031 25.57589844 885.12664063 25.15179688 885.70703125 24.71484375 C889.48940678 22 889.48940678 22 892 22 C891.835 21.030625 891.67 20.06125 891.5 19.0625 C889.95253665 7.67594135 889.95253665 7.67594135 892.875 3 C895.63198233 0.4051931 896.48459743 0.03889831 900.3125 -0.25 C904.22632394 0.015344 905.93192479 0.63319912 909 3 C911.48652284 6.72978426 911.53004541 9.68052546 911 14 C909.93940321 17.5170758 908.63139867 20.36860133 906 23 C904.68 23 903.36 23 902 23 C901.4673486 29.258654 903.18150494 33.45108785 906 39 C910.09843083 31.64550358 911.86008152 24.63018362 912.9230957 16.37158203 C913.6656951 10.90275265 914.88746443 6.34726174 918.6875 2.125 C922.12983467 0.4503507 925.29861663 0.38902309 929 1 C932.4375 2.4375 932.4375 2.4375 935 5 C937.17072352 11.20729365 935.72216893 16.25319893 933 22 C930.8614515 24.1385485 929.86724686 24.42655063 927 25 C927.1838193 30.69839843 927.85623259 34.20161817 931 39 C934.01393766 43.66184602 935.2186244 47.44069377 935 53 C934.71125 54.175625 934.4225 55.35125 934.125 56.5625 C933.97769129 60.61348942 934.57312694 61.20664828 937.125 64.1875 C940.65367 67.8062932 944.26380101 70.89076176 948.53125 73.6171875 C949.4490625 74.21789062 950.366875 74.81859375 951.3125 75.4375 C952.19550781 75.99308594 953.07851563 76.54867187 953.98828125 77.12109375 C956 79 956 79 956.41796875 81.59765625 C956 84 956 84 954 86 C950.6875 86 950.6875 86 947 85 C945.79872247 83.60392071 944.60415398 82.19620978 943.53125 80.69921875 C940.412278 77.23811462 936.04860549 75.21690631 932 73 C935.25340752 86.67909978 939.4822125 99.57485718 944.73876953 112.6027832 C947.16377965 118.65700013 949.244253 124.71821313 951 131 C952.3363491 129.33575043 953.66886152 127.66842018 955 126 C955.804375 125.00226563 956.60875 124.00453125 957.4375 122.9765625 C966.18482248 111.73216991 969.84521788 101.15642227 968.35253906 86.79199219 C967.82982852 81.29134399 968.63915932 76.87384212 970.30859375 71.6484375 C971.08394888 68.67843309 971.11204766 66.05666011 971 63 C968.78255752 70.24364545 967.44126409 77.30250021 966.625 84.8359375 C965.96135163 88.19565739 965.09833623 90.30070829 963 93 C959.8125 93.3125 959.8125 93.3125 957 93 C955.8125 90.25 955.8125 90.25 955 87 C955.71542969 86.09314453 955.71542969 86.09314453 956.4453125 85.16796875 C958.51160097 82.28658658 958.2402404 80.56962156 958.0625 77.0625 C957.82150669 65.07977717 960.16487366 54.9365953 965 44 C965.38913574 43.09918701 965.38913574 43.09918701 965.78613281 42.18017578 C970.97154358 30.32825189 970.97154358 30.32825189 976.4375 26.6875 C978.67847268 25.02926591 979.8554731 23.9465144 980.28369141 21.14208984 C980.3951849 18.11398126 980.31648066 15.14669542 980.05639648 12.12768555 C979.76602461 8.33232419 979.79371325 6.33992469 981.796875 3.0390625 C984.61813801 0.42789355 986.51621118 0.05476855 990.3125 -0.375 C993.98120658 -0.00191119 996.17001402 0.62635002 998.8984375 3.1796875 C1001.26867287 7.09645942 1000.65994622 11.63025902 1000 16 C998.66792442 19.45128672 997.59003919 21.40996081 995 24 C993.68 24 992.36 24 991 24 C991.31014392 26.08368538 991.6232052 28.16693668 991.9375 30.25 C992.11152344 31.41015625 992.28554687 32.5703125 992.46484375 33.765625 C992.91187698 36.80405647 992.91187698 36.80405647 993.52734375 38.9453125 C994.01747593 41.07596974 994.11419297 42.92652786 994.09765625 45.109375 C994.09443359 45.86347656 994.09121094 46.61757812 994.08789062 47.39453125 C994.07951172 48.17183594 994.07113281 48.94914062 994.0625 49.75 C994.05798828 50.54277344 994.05347656 51.33554688 994.04882812 52.15234375 C994.03708565 54.10159508 994.01915146 56.05080738 994 58 C995.58580914 56.75314243 997.1685404 55.50236974 998.75 54.25 C1000.07257813 53.20585938 1000.07257813 53.20585938 1001.421875 52.140625 C1004.01612055 50.07410125 1004.01612055 50.07410125 1006.140625 47.734375 C1008 46 1008 46 1011 46 C1012.48632812 47.58886719 1012.48632812 47.58886719 1014.03125 49.796875 C1014.59457031 50.5909375 1015.15789063 51.385 1015.73828125 52.203125 C1016.31964844 53.04359375 1016.90101563 53.8840625 1017.5 54.75 C1018.65616844 56.39068248 1019.81241581 58.03130933 1020.96875 59.671875 C1021.47857422 60.4050293 1021.98839844 61.13818359 1022.51367188 61.89355469 C1023.52397172 63.32536597 1024.58560101 64.72201558 1025.68945312 66.08300781 C1027 68 1027 68 1027 71 C1024.28824663 73.42583539 1021.4072549 75.55467733 1018.50390625 77.74609375 C1015.84077452 80.14332777 1015.78440518 80.75916807 1015 84 C1012.92578125 85.125 1012.92578125 85.125 1010.3125 86 C1007.10521446 87.1546228 1004.33615812 88.26081084 1001.5625 90.25 C999 92 999 92 996 92 C995.34 91.01 994.68 90.02 994 89 C993.99613281 90.56041016 993.99613281 90.56041016 993.9921875 92.15234375 C993.70133415 107.18469643 991.41515129 121.86763489 989.08349609 136.69116211 C988.94817978 137.56524216 988.81286346 138.4393222 988.67344666 139.33988953 C988.4183047 140.98289597 988.1573321 142.6250129 987.88917542 144.26594543 C987.0661065 149.56755577 986.89101389 154.63401715 987 160 C987.92683594 160.31453125 988.85367188 160.6290625 989.80859375 160.953125 C991.00613281 161.38109375 992.20367188 161.8090625 993.4375 162.25 C994.63246094 162.66765625 995.82742188 163.0853125 997.05859375 163.515625 C998.02925781 164.00546875 998.99992187 164.4953125 1000 165 C1000.33 166.32 1000.66 167.64 1001 169 C992.42 169 983.84 169 975 169 C974 164 974 164 975 161 C975.08494728 158.34105893 975.11594796 155.70914623 975.09765625 153.05078125 C975.0962413 152.27816452 975.09482635 151.50554779 975.09336853 150.70951843 C975.08777466 148.24380611 975.07522333 145.77818485 975.0625 143.3125 C975.05748421 141.63997527 975.05292144 139.96744912 975.04882812 138.29492188 C975.03780724 134.19657954 975.02054684 130.09830521 975 126 C971.78417134 129.01285986 968.60795765 132.06448745 965.4375 135.125 C964.52291016 135.9809375 963.60832031 136.836875 962.66601562 137.71875 C961.80556641 138.55664062 960.94511719 139.39453125 960.05859375 140.2578125 C959.25736084 141.0223877 958.45612793 141.78696289 957.63061523 142.57470703 C955.69168125 144.94361245 955.69168125 144.94361245 956.12133789 148.10888672 C956.89538538 151.15592583 956.89538538 151.15592583 959 154 C962.11610554 154.58592634 962.11610554 154.58592634 965.625 154.6875 C967.40777344 154.78611328 967.40777344 154.78611328 969.2265625 154.88671875 C970.14179687 154.92410156 971.05703125 154.96148437 972 155 C972.33 156.32 972.66 157.64 973 159 C959.63102318 167.13763806 959.63102318 167.13763806 953.8359375 166.91796875 C951.11341806 165.55670903 950.79394772 163.82015999 949.8125 161 C948.8395483 157.7389803 948.8395483 157.7389803 947 155 C947.49414948 161.57839982 947.49414948 161.57839982 951 167 C951 167.66 951 168.32 951 169 C946.92637006 169.39937548 944.76718473 169.5800665 941.4375 167.0625 C933.29812298 156.83610324 933.29812298 156.83610324 932.58203125 152.42578125 C933 150 933 150 934.75 148.19921875 C935.4925 147.70035156 936.235 147.20148438 937 146.6875 C937.7425 146.17574219 938.485 145.66398438 939.25 145.13671875 C939.8275 144.76160156 940.405 144.38648438 941 144 C939.38833636 130.58936676 928.37919425 117.06879138 921 106 C920.52691406 107.12535156 920.05382812 108.25070313 919.56640625 109.41015625 C915.94705278 117.86643372 912.09055913 125.89478729 907.23461914 133.71044922 C903.07016082 140.42344321 898.92609447 147.29562213 897 155 C900.96 155.33 904.92 155.66 909 156 C908 161 908 161 905.9375 162.8125 C905.298125 163.204375 904.65875 163.59625 904 164 C905.32 164.33 906.64 164.66 908 165 C908 166.32 908 167.64 908 169 C899.09 169 890.18 169 881 169 C880.67 165.37 880.34 161.74 880 158 C878.74363542 154.88963442 877.54518077 152.20299341 875.9375 149.3125 C875.37192383 148.24225586 875.37192383 148.24225586 874.79492188 147.15039062 C873.87993687 145.42465942 872.94239866 143.71091511 872 142 C867.45643549 144.04510775 863.97236256 146.99676025 861 151 C860.86789525 153.86920862 860.86789525 153.86920862 862 156 C867.0056546 157.31727753 871.86496656 158.35812082 877 159 C876.83203125 161.359375 876.83203125 161.359375 876 164 C873.63671875 165.328125 873.63671875 165.328125 870.6875 166.25 C869.72199219 166.56453125 868.75648438 166.8790625 867.76171875 167.203125 C856.89187669 170.33954336 856.89187669 170.33954336 852 169 C849.35698211 166.32904323 847.68540553 163.33765553 846 160 C845.62101563 159.31679687 845.24203125 158.63359375 844.8515625 157.9296875 C843.53714115 154.95113637 843.82196241 152.20467663 844 149 C844.33 148.34 844.66 147.68 845 147 C844.22835994 144.5983685 844.22835994 144.5983685 843.0625 142 C841 137.18983051 841 137.18983051 841 135 C840.34 135 839.68 135 839 135 C837.06126646 138.97151012 836.89794521 141.37541192 837.75 145.6875 C837.94851563 146.72777344 838.14703125 147.76804688 838.3515625 148.83984375 C838.67253906 150.40412109 838.67253906 150.40412109 839 152 C839.19335938 152.99128906 839.38671875 153.98257813 839.5859375 155.00390625 C840.04429357 157.33886509 840.51551481 159.6703478 841 162 C841.94875 162.28875 842.8975 162.5775 843.875 162.875 C847 164 847 164 849 166 C849 166.99 849 167.98 849 169 C568.83 169 288.66 169 0 169 C0 113.23 0 57.46 0 0 Z M820 18 C821 20 821 20 821 20 Z M819 21 C818.01 22.485 818.01 22.485 817 24 C814.875 24.6875 814.875 24.6875 813 25 C811.95785309 29.61507774 811.95785309 29.61507774 813 34 C813.66 34 814.32 34 815 34 C815.86916887 32.59248779 816.71985149 31.1735479 817.5625 29.75 C818.03816406 28.96109375 818.51382813 28.1721875 819.00390625 27.359375 C820.13022151 24.69155375 820.0169313 23.65498232 819 21 Z M903 62 C900.12484251 76.43161577 899.22266006 90.36868367 901 105 C901.33 105 901.66 105 902 105 C902.24234375 103.90042969 902.4846875 102.80085938 902.734375 101.66796875 C905.76412481 88.22373959 905.76412481 88.22373959 908.3125 81.875 C909.98820155 77.46630901 910.48467549 74.62869418 909 70 C907.52117053 67.19171778 905.93624501 64.51842678 904 62 C903.67 62 903.34 62 903 62 Z M864 75 C863.72596041 89.18154863 867.05870898 100.18070066 873 113 C873.66 113 874.32 113 875 113 C876.96818336 107.17745757 878.40214229 102.16618181 878 96 C875.03 96.33 872.06 96.66 869 97 C869.01160156 95.81921875 869.02320313 94.6384375 869.03515625 93.421875 C869.04453752 91.86458492 869.05363736 90.30729312 869.0625 88.75 C869.07087891 87.97269531 869.07925781 87.19539063 869.08789062 86.39453125 C869.09111328 85.64042969 869.09433594 84.88632813 869.09765625 84.109375 C869.10289307 83.41811523 869.10812988 82.72685547 869.11352539 82.01464844 C868.99437971 79.90026102 868.57618237 78.03358485 868 76 C866.68 75.67 865.36 75.34 864 75 Z M851.3125 118.4375 C849.6339567 120.48851545 848.99717193 121.47963465 849.01171875 124.15625 C850.05212286 129.01701802 851.89849029 133.51041108 854 138 C858.2742558 136.4169423 860.26531794 133.49431596 863 130 C861.67726488 126.40241608 860.0805802 123.36262865 857.9375 120.1875 C857.41027344 119.39730469 856.88304687 118.60710937 856.33984375 117.79296875 C855.67662109 116.90544922 855.67662109 116.90544922 855 116 C853.51874795 115.88803084 853.51874795 115.88803084 851.3125 118.4375 Z M818 127 C818.14204741 128.58367747 818.28880153 130.16693318 818.4375 131.75 C818.51871094 132.63171875 818.59992187 133.5134375 818.68359375 134.421875 C818.96238465 136.69350452 819.38790577 138.79851823 820 141 C820.66 141 821.32 141 822 141 C823.07010304 138.23556715 823.16283213 136.46148633 822.17578125 133.6640625 C821.16488321 131.41525773 820.11596524 129.19840363 819 127 C818.67 127 818.34 127 818 127 Z M883 130 C882.30840599 131.84725052 882.30840599 131.84725052 882 134 C882.99 135.485 882.99 135.485 884 137 C884 134.69 884 132.38 884 130 C883.67 130 883.34 130 883 130 Z M809 142 C807.56137736 147.12509314 806.47305944 151.62520629 807 157 C808.23086042 158.9846938 808.23086042 158.9846938 810 160 C810.66 160 811.32 160 812 160 C813.18933594 153.00727785 812.99415978 148.46738512 810 142 C809.67 142 809.34 142 809 142 Z M827 152 C825.78702351 154.2806707 825.78702351 154.2806707 825 157 C825.76603959 159.2857711 825.76603959 159.2857711 827 161 C827.99 160.67 828.98 160.34 830 160 C829.34 157.36 828.68 154.72 828 152 C827.67 152 827.34 152 827 152 Z " fill="#040404" transform="translate(38,45)"/>
<path d="M0 0 C0.99 0 1.98 0 3 0 C8.12361415 11.62115834 12.65216514 23.37764786 16.87353516 35.35498047 C20.98018133 46.99943328 25.23562793 58.58618628 29.5234375 70.16503906 C30.12246389 71.78317793 30.72142176 73.40134217 31.3203125 75.01953125 C31.61955627 75.82788422 31.91880005 76.63623718 32.22711182 77.46908569 C34.1393606 82.64395024 36.02749843 87.82703196 37.89929199 93.0166626 C39.16451109 96.52326146 40.43661431 100.02734598 41.70910645 103.53131104 C42.31466168 105.20484037 42.91685387 106.87959083 43.51550293 108.55560303 C44.34802366 110.88535897 45.19226978 113.21055677 46.0390625 115.53515625 C46.28018768 116.21986496 46.52131287 116.90457367 46.76974487 117.61003113 C48.46880471 122.22499 50.42550781 126.7127539 55 129 C59.3787478 129.50524013 61.45525468 129.33522789 65.25 127 C70.90459436 121.6408986 71.52069522 113.80387262 72.0625 106.45703125 C72.13901794 105.54718475 72.21553589 104.63733826 72.29437256 103.69992065 C72.540743 100.73823943 72.77069655 97.77554729 73 94.8125 C73.1673418 92.75032939 73.33564652 90.6882367 73.50488281 88.6262207 C73.84696981 84.43908318 74.18260291 80.25149899 74.51367188 76.06347656 C74.95703033 70.48524928 75.43438489 64.91045371 75.921875 59.3359375 C76.13253705 56.88967064 76.34221422 54.44332239 76.55126953 51.99691772 C76.68111723 50.4879766 76.81287091 48.97919794 76.94677734 47.47061157 C77.37202514 42.65043053 77.73126216 37.83150629 78 33 C78.06537964 31.86694427 78.06537964 31.86694427 78.13208008 30.71099854 C78.25015115 28.39713012 78.32679802 26.08547428 78.390625 23.76953125 C78.42782654 23.06487228 78.46502808 22.36021332 78.50335693 21.63420105 C78.55957439 17.71267668 78.12592562 16.15544935 75.62475586 13.06787109 C72.99611386 10.99693837 71.56901203 10.28245505 68.3125 9.8125 C64.18055556 9.18055556 64.18055556 9.18055556 62 7 C62.125 5 62.125 5 63 3 C66.19617493 0.92198631 68.80134428 0.75160982 72.56298828 0.75708008 C73.67739288 0.75400345 74.79179749 0.75092682 75.93997192 0.74775696 C77.13798431 0.75494247 78.3359967 0.76212799 79.5703125 0.76953125 C80.80288788 0.76998947 82.03546326 0.77044769 83.3053894 0.7709198 C86.57619114 0.77471333 89.84679792 0.78771211 93.11755371 0.80438232 C96.44946523 0.81785585 99.78134346 0.81465802 103.11328125 0.81445312 C105.64062701 0.8193678 108.1679712 0.8251959 110.6953125 0.83203125 C112.49840378 0.83370049 112.49840378 0.83370049 114.33792114 0.83540344 C116.00007156 0.84497322 116.00007156 0.84497322 117.69580078 0.85473633 C118.67412872 0.85854813 119.65245667 0.86235992 120.66043091 0.86628723 C123 1 123 1 125 2 C124.8359375 3.8125 124.8359375 3.8125 124 6 C121.6015625 7.5625 121.6015625 7.5625 118.625 9 C114.70239957 10.90437594 112.2624238 12.24101744 110 16 C109.2837151 19.14199587 109.2837151 19.14199587 108.97265625 22.71875 C108.89891785 23.39306564 108.82517944 24.06738129 108.74920654 24.76213074 C108.50755693 27.00694261 108.28478741 29.25319449 108.0625 31.5 C107.89684828 33.08186802 107.73040902 34.66365374 107.56323242 36.24536133 C105.99579773 51.27738101 104.63830125 66.33221051 103.30688477 81.38671875 C103.22666077 82.29319656 103.14643677 83.19967438 103.06378174 84.13362122 C102.91512048 85.81947008 102.76744923 87.50540672 102.62103271 89.19145203 C102.21602693 93.80010617 101.74800649 98.39629805 101.21276855 102.99172974 C100.50890961 109.63528184 99.94945677 116.35080402 102.4375 122.625 C105.38935677 125.36086725 108.15593605 126.65828866 111.87109375 128.12109375 C114.22684313 129.09365084 116.07832073 130.32897455 118 132 C117.625 133.9375 117.625 133.9375 117 136 C114.59721025 137.20139488 113.11474633 137.12320302 110.43161011 137.12025452 C109.46964722 137.12162918 108.50768433 137.12300385 107.51657104 137.12442017 C106.4577774 137.12082489 105.39898376 137.11722961 104.30810547 137.11352539 C102.63980682 137.11374443 102.63980682 137.11374443 100.93780518 137.1139679 C97.2475797 137.1132691 93.5574042 137.10547824 89.8671875 137.09765625 C87.31413806 137.09579195 84.76108826 137.0943681 82.20803833 137.09336853 C76.16613084 137.08993553 70.12424492 137.08204747 64.08234608 137.07201904 C57.20456124 137.06085045 50.32677555 137.05534557 43.44898391 137.05032361 C29.2993126 137.03986466 15.14965729 137.02226986 1 137 C0.67 135.68 0.34 134.36 0 133 C0.75925781 132.63648438 1.51851563 132.27296875 2.30078125 131.8984375 C8.35825606 128.8700024 8.35825606 128.8700024 13.25 124.3125 C15.27343091 115.37568013 12.55240476 106.24402898 9 98 C7.0709488 94.95001364 6.49945464 94.16648488 3 93 C1.57466506 92.88981346 0.14495748 92.8314155 -1.28442383 92.80712891 C-2.57640434 92.78303452 -2.57640434 92.78303452 -3.89448547 92.75845337 C-7.82816644 92.71385018 -11.76168182 92.6729457 -15.69555664 92.64990234 C-17.768262 92.63334278 -19.84091026 92.60605283 -21.91333008 92.56787109 C-24.90736402 92.5130222 -27.90006216 92.49121689 -30.89453125 92.4765625 C-32.27763237 92.44255844 -32.27763237 92.44255844 -33.68867493 92.40786743 C-38.03992701 92.422109 -41.04578321 92.55815206 -44.51513672 95.34472656 C-47.13649737 98.14585826 -48.6987418 100.65389747 -50.3125 104.125 C-50.80363281 105.15882813 -51.29476562 106.19265625 -51.80078125 107.2578125 C-54.24240241 112.8409332 -54.9262542 117.9521049 -54 124 C-50.30536461 127.88410387 -46.13729142 128.54544376 -41.05859375 129.49609375 C-38.52401923 130.11651142 -36.87808006 131.20357559 -35 133 C-35.33 134.32 -35.66 135.64 -36 137 C-51.84 137 -67.68 137 -84 137 C-84.33 135.68 -84.66 134.36 -85 133 C-84.11248047 132.43732422 -84.11248047 132.43732422 -83.20703125 131.86328125 C-82.41683594 131.35152344 -81.62664062 130.83976563 -80.8125 130.3125 C-79.64654297 129.56419922 -79.64654297 129.56419922 -78.45703125 128.80078125 C-71.61717464 123.78778619 -68.28920569 117.70966234 -64.1875 110.375 C-62.84916228 108.01735462 -61.50937224 105.6605848 -60.16796875 103.3046875 C-59.82482635 102.7002179 -59.48168396 102.09574829 -59.12814331 101.47296143 C-55.50348598 95.09828289 -51.75560056 88.79824923 -48 82.5 C-42.0922707 72.5701699 -36.27255331 62.59370051 -30.51489258 52.57617188 C-26.2731198 45.19722544 -21.99006403 37.84363717 -17.6875 30.5 C-12.99140964 22.48116071 -8.39193901 14.41749363 -3.93041992 6.265625 C-1.09494417 1.09494417 -1.09494417 1.09494417 0 0 Z " fill="#FBFBFB" transform="translate(226,61)"/>
<path d="M0 0 C0.74166633 0.00054477 1.48333265 0.00108953 2.24747372 0.00165081 C3.09860744 -0.00254368 3.94974117 -0.00673817 4.82666683 -0.01105976 C5.76232983 -0.00544025 6.69799282 0.00017925 7.66200924 0.00596905 C8.64580563 0.0040707 9.62960201 0.00217236 10.64321041 0.00021648 C13.90663691 -0.00349901 17.16984263 0.00722323 20.43324947 0.01842022 C22.69244008 0.0196116 24.9516312 0.02006527 27.21082211 0.01980877 C31.94962818 0.02137493 36.68835885 0.02967528 41.42714596 0.04307842 C47.5162986 0.06007813 53.60536834 0.06389257 59.69454193 0.06313324 C64.36035619 0.06340451 69.02615215 0.06887869 73.69196033 0.07613468 C75.93795731 0.07932761 78.18395636 0.0812902 80.42995548 0.08202839 C83.56203055 0.08418482 86.69401581 0.0929136 89.82607174 0.1036253 C90.76375896 0.10317211 91.70144619 0.10271893 92.66754818 0.10225201 C99.06486944 0.13441519 99.06486944 0.13441519 100.17934322 1.24888897 C100.63529325 8.42339668 100.13564759 15.69777902 99.80434322 22.87388897 C99.77356686 23.6678709 99.74279049 24.46185284 99.7110815 25.27989483 C99.41214717 31.01608502 99.41214717 31.01608502 97.17934322 33.24888897 C95.85934322 33.24888897 94.53934322 33.24888897 93.17934322 33.24888897 C93.00918697 32.36845928 92.83903072 31.48802959 92.66371822 30.58092022 C92.42137447 29.41947491 92.17903072 28.25802959 91.92934322 27.06138897 C91.69731197 25.91283428 91.46528072 24.76427959 91.22621822 23.58092022 C89.903397 19.37059746 88.15565841 16.40615395 84.28481197 14.13951397 C83.65188229 13.92810772 83.0189526 13.71670147 82.36684322 13.49888897 C81.74164791 13.27717022 81.1164526 13.05545147 80.47231197 12.82701397 C73.32030304 11.02378173 66.26636018 11.09743338 58.92934322 11.12388897 C57.84137447 11.12002178 56.75340572 11.11615459 55.63246822 11.11217022 C54.59090572 11.11345928 53.54934322 11.11474834 52.47621822 11.11607647 C51.53101315 11.1172044 50.58580807 11.11833233 49.61196041 11.11949444 C47.03821525 11.14849234 47.03821525 11.14849234 44.17934322 12.24888897 C42.75056271 22.88874383 41.78031149 33.54260651 40.99184322 44.24888897 C40.8959692 45.50798077 40.80009518 46.76707256 40.70131588 48.06431866 C40.57635738 49.82630596 40.57635738 49.82630596 40.44887447 51.62388897 C40.37257809 52.68349834 40.2962817 53.74310772 40.2176733 54.83482647 C40.20502438 55.63146709 40.19237545 56.42810772 40.17934322 57.24888897 C42.60616521 59.67571096 49.3323134 58.61957796 52.73818111 58.63829327 C60.95046455 58.50629773 66.72561628 56.70261591 72.61684322 50.81138897 C74.28535105 48.20066336 74.28535105 48.20066336 75.61684322 44.99888897 C77.17934322 42.24888897 77.17934322 42.24888897 79.86684322 41.37388897 C80.62996822 41.33263897 81.39309322 41.29138897 82.17934322 41.24888897 C82.27043993 47.36451428 81.96541107 53.24322798 81.24184322 59.31138897 C80.36897737 66.94820751 79.82997118 74.54192441 79.52309322 82.22154522 C79.17934322 85.24888897 79.17934322 85.24888897 77.17934322 87.24888897 C75.17543697 87.20201397 75.17543697 87.20201397 73.17934322 86.24888897 C72.08949947 83.92076397 72.08949947 83.92076397 71.24184322 80.99888897 C69.62050378 76.08380482 68.27552422 73.39979743 64.17934322 70.24888897 C60.15744378 68.90825582 56.452718 69.06471772 52.24184322 69.06138897 C51.43037838 69.04914288 50.61891354 69.03689678 49.78285885 69.02427959 C48.99717525 69.022346 48.21149166 69.02041241 47.40199947 69.01842022 C46.68793941 69.01431133 45.97387936 69.01020245 45.23818111 69.00596905 C42.80089846 69.29354123 41.23945529 69.91933672 39.17934322 71.24888897 C36.78212872 77.05307715 36.78884343 82.97340575 36.61684322 89.18638897 C36.27304735 99.97572769 36.27304735 99.97572769 35.66762447 104.54967022 C35.22567472 107.89788156 34.98234048 111.12473017 34.92934322 114.49888897 C34.89067135 115.99162334 34.89067135 115.99162334 34.85121822 117.51451397 C35.23810977 120.73861021 35.96003585 121.9129375 38.17934322 124.24888897 C40.33871209 124.82923173 40.33871209 124.82923173 42.74965572 124.70982647 C43.64684322 124.70595928 44.54403072 124.70209209 45.46840572 124.69810772 C46.4042651 124.67361553 47.34012447 124.64912334 48.30434322 124.62388897 C49.21699947 124.62259991 50.12965572 124.62131084 51.06996822 124.61998272 C64.73831547 124.4447475 79.05645171 120.4260537 88.93324947 110.48326397 C91.21258144 107.8554627 93.26509261 105.13035306 95.30434322 102.31138897 C96.23246822 101.29045147 96.23246822 101.29045147 97.17934322 100.24888897 C98.49934322 100.24888897 99.81934322 100.24888897 101.17934322 100.24888897 C101.92179345 109.90074185 98.98930136 119.00672465 92.82387447 126.49888897 C87.95577627 131.679193 83.57201863 136.04156553 76.24361324 136.489398 C74.61965496 136.49518752 72.99563464 136.48989826 71.37172604 136.47593975 C70.0394875 136.47637783 70.0394875 136.47637783 68.68033504 136.47682476 C65.74761305 136.47543254 62.81514579 136.45987634 59.88246822 136.44420147 C57.84794408 136.44047096 55.81341814 136.43762417 53.77889156 136.43562603 C48.42605784 136.42799259 43.07333277 136.40834651 37.72054195 136.38621807 C32.25760525 136.36575346 26.79465097 136.35662299 21.33168697 136.34654522 C10.61419133 136.32510041 -0.10322368 136.29096789 -10.82065678 136.24888897 C-11.15065678 134.92888897 -11.48065678 133.60888897 -11.82065678 132.24888897 C-8.3371361 129.27765075 -4.90044477 127.28878296 -0.82065678 125.24888897 C2.65519923 122.76613468 3.27816575 119.23671453 4.17934322 115.24888897 C4.70018257 111.93571721 5.05464758 108.61194669 5.39809322 105.27623272 C5.50150021 104.3172961 5.60490719 103.35835949 5.71144772 102.37036419 C5.92936102 100.3392111 6.1443478 98.30774216 6.35658932 96.27598858 C6.67297004 93.24739704 6.99752404 90.21978006 7.32387447 87.19224834 C7.96420226 81.21329068 8.57636999 75.23171656 9.17934322 69.24888897 C9.27757381 68.28793316 9.37580441 67.32697735 9.47701168 66.33690166 C10.64644028 54.79091187 11.55268698 43.32015672 11.54994869 31.70982647 C11.5544819 29.55806499 11.5915348 27.40812476 11.62856197 25.25670147 C11.6344065 23.86608326 11.63839165 22.47545567 11.64028072 21.08482647 C11.65260738 19.25250469 11.65260738 19.25250469 11.66518307 17.38316631 C11.08652142 13.65007172 10.13521183 12.51977039 7.17934322 10.24888897 C4.62306797 9.14679564 4.62306797 9.14679564 1.92934322 8.49888897 C1.03731197 8.25654522 0.14528072 8.01420147 -0.77378178 7.76451397 C-1.44925053 7.59435772 -2.12471928 7.42420147 -2.82065678 7.24888897 C-3.44565678 4.87388897 -3.44565678 4.87388897 -3.82065678 2.24888897 C-1.82065678 0.24888897 -1.82065678 0.24888897 0 0 Z " fill="#FBFBFB" transform="translate(367.8206567764282,61.75111103057861)"/>
<path d="M0 0 C0.85113373 -0.00281982 1.70226746 -0.00563965 2.57919312 -0.00854492 C3.51485611 -0.00652069 4.4505191 -0.00449646 5.41453552 -0.00241089 C6.39833191 -0.00416321 7.3821283 -0.00591553 8.39573669 -0.00772095 C11.6591008 -0.012135 14.92241106 -0.00920325 18.18577576 -0.00582886 C20.44496674 -0.00650197 22.70415765 -0.00747206 24.96334839 -0.00872803 C29.70213001 -0.01020435 34.4408928 -0.00805233 39.17967224 -0.00338745 C45.26881945 0.00231304 51.35792262 -0.00097162 57.44706821 -0.00695992 C62.11287776 -0.01056451 66.77867677 -0.00942747 71.44448662 -0.00683212 C73.69048505 -0.00616274 75.93648443 -0.00699166 78.18248177 -0.00931168 C81.31454649 -0.01183689 84.44653873 -0.00799961 87.57859802 -0.00241089 C88.98512886 -0.00544724 88.98512886 -0.00544724 90.42007446 -0.00854492 C96.81760656 0.01272069 96.81760656 0.01272069 97.93186951 1.12698364 C98.06468201 2.98245239 98.06468201 2.98245239 98.05686951 5.31448364 C98.06073669 6.44950317 98.06073669 6.44950317 98.06468201 7.60745239 C97.93186951 10.12698364 97.93186951 10.12698364 97.45921326 12.90432739 C96.82673319 16.76948338 96.58484829 20.59510596 96.36936951 24.50198364 C96.30459412 25.60606567 96.30459412 25.60606567 96.23851013 26.73245239 C96.13343151 28.53046433 96.03224858 30.32870322 95.93186951 32.12698364 C94.28186951 32.45698364 92.63186951 32.78698364 90.93186951 33.12698364 C89.50114194 29.95894403 88.68487662 26.96245071 88.05686951 23.56448364 C87.18102012 19.5935274 86.44099431 17.46640018 82.93186951 15.12698364 C74.21334354 11.45689938 65.66516009 10.9024375 56.30686951 10.81448364 C54.75226013 10.77097778 54.75226013 10.77097778 53.16624451 10.72659302 C52.16851013 10.71821411 51.17077576 10.70983521 50.14280701 10.70120239 C49.23836853 10.68661987 48.33393005 10.67203735 47.40208435 10.65701294 C43.99594886 11.30504722 42.93154962 12.30088507 40.93186951 15.12698364 C40.37738095 17.81777483 40.05460278 20.17804079 39.88499451 22.89260864 C39.82406616 23.64483704 39.76313782 24.39706543 39.70036316 25.17208862 C39.5104651 27.57276061 39.3462159 29.97444183 39.18186951 32.37698364 C39.05716831 33.97736961 38.93088221 35.57763291 38.80296326 37.17776489 C38.26188615 44.18099342 37.86681941 51.09960182 37.93186951 58.12698364 C53.04674274 59.15317135 53.04674274 59.15317135 66.93186951 54.12698364 C70.72967487 50.52906277 72.74038381 45.82468969 74.93186951 41.12698364 C76.58186951 41.45698364 78.23186951 41.78698364 79.93186951 42.12698364 C79.23823406 51.70425311 78.37942524 61.25918154 77.43186951 70.81448364 C77.30033093 72.18362156 77.16882039 73.55276218 77.03733826 74.92190552 C76.90972107 76.21032349 76.78210388 77.49874146 76.65061951 78.82620239 C76.53653748 79.989823 76.42245544 81.1534436 76.30491638 82.35232544 C75.93186951 85.12698364 75.93186951 85.12698364 74.93186951 87.12698364 C73.61186951 87.12698364 72.29186951 87.12698364 70.93186951 87.12698364 C70.77331482 86.47471802 70.61476013 85.82245239 70.45140076 85.15042114 C68.88377762 79.27833005 67.36256714 75.34669567 62.93186951 71.12698364 C58.69813046 68.89187456 54.67564337 68.8568985 49.99436951 68.93948364 C49.30407654 68.94012817 48.61378357 68.94077271 47.90257263 68.94143677 C43.81618954 68.97629691 39.9406666 69.34279016 35.93186951 70.12698364 C30.67198595 97.67638836 30.67198595 97.67638836 34.93186951 124.12698364 C53.56508417 124.61196454 71.19214312 124.32141613 85.93186951 111.12698364 C87.42885331 109.25640703 88.86731819 107.33753128 90.24436951 105.37698364 C90.94175232 104.39213989 91.63913513 103.40729614 92.35765076 102.39260864 C92.87714294 101.64495239 93.39663513 100.89729614 93.93186951 100.12698364 C95.58186951 100.45698364 97.23186951 100.78698364 98.93186951 101.12698364 C98.65193799 112.62962406 94.78950723 121.84764603 86.99436951 130.28713989 C80.78066767 135.83004437 75.35878443 136.2759017 67.30784607 136.24050903 C66.43919418 136.24065506 65.5705423 136.24080109 64.67556763 136.24095154 C61.80785108 136.24025555 58.94019969 136.23247779 56.07249451 136.22463989 C54.08280981 136.2227746 52.09312465 136.22135122 50.10343933 136.22035217 C44.86901072 136.21653576 39.6346099 136.20671293 34.40019226 136.19564819 C29.05789058 136.18541526 23.71558441 136.18085051 18.37327576 136.17581177 C7.8927948 136.1650899 -2.58766553 136.14802396 -13.06813049 136.12698364 C-13.39813049 134.47698364 -13.72813049 132.82698364 -14.06813049 131.12698364 C-13.23668518 130.69128052 -12.40523987 130.25557739 -11.54859924 129.80667114 C-9.91857971 128.91335083 -9.91857971 128.91335083 -8.25563049 128.00198364 C-7.17668518 127.42190552 -6.09773987 126.84182739 -4.98609924 126.24417114 C-1.23027291 123.5190602 0.36696996 120.72335389 1.36212158 116.1494751 C1.70634603 113.85633256 1.97227713 111.56608788 2.21311951 109.25979614 C2.31187881 108.40071655 2.41063812 107.54163696 2.51239014 106.65652466 C2.83084427 103.85620159 3.13217666 101.05437205 3.43186951 98.25198364 C3.64711254 96.30124527 3.86285603 94.35056205 4.0790863 92.39993286 C4.61411595 87.537633 5.1325268 82.67371268 5.64616394 77.80911255 C5.90778079 75.35312219 6.17672542 72.89811365 6.44993591 70.44338989 C8.06089056 55.93345405 9.21196381 41.47658929 9.36936951 26.87698364 C9.40284485 25.03644409 9.40284485 25.03644409 9.43699646 23.15872192 C9.4340155 22.02934204 9.43103455 20.89996216 9.42796326 19.73635864 C9.42981628 18.74603638 9.43166931 17.75571411 9.43357849 16.73538208 C8.79148499 13.39712077 7.54641295 12.23127715 4.93186951 10.12698364 C2.40814491 9.06002883 2.40814491 9.06002883 -0.25563049 8.43948364 C-4.99868605 7.19642809 -4.99868605 7.19642809 -6.06813049 6.12698364 C-6.10876881 4.46081249 -6.11085149 2.79310269 -6.06813049 1.12698364 C-3.78679462 -0.01368429 -2.53401296 0.00128816 0 0 Z " fill="#FBFBFB" transform="translate(586.0681304931641,61.873016357421875)"/>
<path d="M0 0 C2.87897318 1.14224747 5.58583629 1.64213505 8.6484375 2.05078125 C9.12023437 1.2928125 9.12023437 1.2928125 9.6015625 0.51953125 C10.02953125 -0.13015625 10.4575 -0.77984375 10.8984375 -1.44921875 C11.31609375 -2.09890625 11.73375 -2.74859375 12.1640625 -3.41796875 C12.65390625 -3.92328125 13.14375 -4.42859375 13.6484375 -4.94921875 C14.9684375 -4.94921875 16.2884375 -4.94921875 17.6484375 -4.94921875 C19.34040254 -1.56528867 18.76830299 2.27555916 18.74609375 5.99609375 C18.74397133 7.3236116 18.74397133 7.3236116 18.74180603 8.677948 C18.7361989 11.51059316 18.72364521 14.34315989 18.7109375 17.17578125 C18.70592342 19.09374886 18.70136035 21.01171771 18.69726562 22.9296875 C18.68622716 27.63674907 18.66895775 32.34375185 18.6484375 37.05078125 C17.3284375 37.38078125 16.0084375 37.71078125 14.6484375 38.05078125 C14.35187256 37.51710937 14.05530762 36.9834375 13.74975586 36.43359375 C12.37164315 33.96702005 10.97892002 31.5089857 9.5859375 29.05078125 C9.11994141 28.21160156 8.65394531 27.37242188 8.17382812 26.5078125 C1.31867611 14.4763212 -6.77881396 6.80365054 -20.1484375 2.59375 C-32.83754861 -0.53353093 -44.37886148 -0.02011004 -55.75 6.40625 C-68.00928217 14.00211752 -75.03896381 27.15700427 -78.3515625 40.98828125 C-81.72761778 61.61729433 -81.10528973 83.85419958 -68.6875 101.40234375 C-61.73785717 109.87519597 -53.00362613 114.19742611 -42.1640625 115.40625 C-23.52382615 116.18998721 -9.61662195 107.73798892 4.23828125 96.06640625 C5.03363281 95.40125 5.82898438 94.73609375 6.6484375 94.05078125 C7.33035156 93.468125 8.01226563 92.88546875 8.71484375 92.28515625 C10.6484375 91.05078125 10.6484375 91.05078125 14.6484375 91.05078125 C14.45295836 98.67446754 9.23553039 103.58232723 4.0078125 108.5703125 C-10.81932406 121.47467868 -28.14706191 130.22513386 -48.0390625 130.23828125 C-48.99490234 130.25052734 -49.95074219 130.26277344 -50.93554688 130.27539062 C-67.8672702 130.31001583 -84.35980788 123.98152399 -96.7265625 112.30078125 C-108.6774452 99.67850064 -111.78793544 84.93684389 -111.56640625 68.1484375 C-110.88050866 45.62458297 -102.4193688 25.87178393 -86.34765625 10.08203125 C-62.74429266 -11.66167339 -28.11773062 -13.01149999 0 0 Z " fill="#FAFAFA" transform="translate(803.3515625,68.94921875)"/>
<path d="M0 0 C2.67039434 0.83107059 4.692757 1.01972218 7.47265625 0.76953125 C8.31828125 0.25390625 9.16390625 -0.26171875 10.03515625 -0.79296875 C12.47265625 -2.23046875 12.47265625 -2.23046875 14.625 -1.8203125 C15.23472656 -1.62566406 15.84445312 -1.43101563 16.47265625 -1.23046875 C16.52201783 3.8598488 16.5583573 8.95002768 16.58251953 14.04052734 C16.59259001 15.7729739 16.60624714 17.50540341 16.62353516 19.23779297 C16.64773787 21.72497764 16.65912864 24.211938 16.66796875 26.69921875 C16.67829132 27.47635223 16.68861389 28.25348572 16.69924927 29.0541687 C16.69964896 30.96078618 16.59497765 32.86684161 16.47265625 34.76953125 C14.47265625 36.76953125 14.47265625 36.76953125 12.05859375 36.8671875 C9.47265625 35.76953125 9.47265625 35.76953125 7.69921875 32.453125 C7.15139133 31.04311 6.61825631 29.62732444 6.09765625 28.20703125 C2.10287652 18.28740968 -2.83996474 11.70672828 -12.52734375 6.76953125 C-13.15382813 6.44984375 -13.7803125 6.13015625 -14.42578125 5.80078125 C-21.96661823 2.47665719 -29.66473858 2.90558423 -37.40234375 5.39453125 C-43.30719026 7.77837085 -45.76915036 10.58803844 -48.83984375 16.14453125 C-50.55466896 22.69204568 -49.83867364 26.97470395 -46.52734375 32.76953125 C-46.52734375 33.42953125 -46.52734375 34.08953125 -46.52734375 34.76953125 C-45.71910156 35.16785156 -45.71910156 35.16785156 -44.89453125 35.57421875 C-43.1996964 36.43002644 -41.51873658 37.3135322 -39.84765625 38.21484375 C-31.64408449 42.52723478 -23.31384333 45.81701412 -14.52001953 48.75244141 C-3.01146512 52.71091719 7.0314609 58.56993314 13.41015625 69.20703125 C18.12402275 79.50885871 15.9322846 91.82498967 12.80078125 102.2890625 C7.38117724 116.491613 -2.70012215 125.29540794 -16.21484375 131.58203125 C-19.77037696 132.85665636 -22.75997892 133.45558418 -26.52734375 133.76953125 C-27.64302734 133.86621094 -27.64302734 133.86621094 -28.78125 133.96484375 C-37.98724072 134.38649218 -46.66980105 131.98580472 -55.52734375 129.76953125 C-56.26791016 129.5880957 -57.00847656 129.40666016 -57.77148438 129.21972656 C-70.1162975 126.1805775 -70.1162975 126.1805775 -72.52734375 123.76953125 C-73.12158203 121.08325195 -73.12158203 121.08325195 -73.59765625 117.6953125 C-73.77167969 116.47005859 -73.94570313 115.24480469 -74.125 113.98242188 C-74.29902344 112.69529297 -74.47304688 111.40816406 -74.65234375 110.08203125 C-74.83410156 108.81423828 -75.01585937 107.54644531 -75.203125 106.24023438 C-76.02244791 100.35404609 -76.62459055 94.72282938 -76.52734375 88.76953125 C-74.05234375 88.27453125 -74.05234375 88.27453125 -71.52734375 87.76953125 C-71.25583496 88.30320312 -70.98432617 88.836875 -70.70458984 89.38671875 C-69.44491308 91.85169774 -68.17371928 94.31056711 -66.90234375 96.76953125 C-66.47566406 97.60871094 -66.04898437 98.44789063 -65.609375 99.3125 C-61.70680531 106.82640283 -57.659537 113.87847455 -50.46484375 118.64453125 C-49.64886719 119.19882813 -48.83289063 119.753125 -47.9921875 120.32421875 C-39.73688051 125.16489004 -29.68565976 124.99963736 -20.4375 123.15234375 C-13.16512306 120.61989816 -8.49784051 115.71052477 -5.08984375 108.89453125 C-3.93942454 102.50331344 -3.22552264 96.01874973 -7.0246582 90.34277344 C-13.11883999 83.96244729 -22.35021773 81.09335904 -30.46484375 78.26953125 C-40.79617221 74.66050672 -50.942949 70.77081029 -59.02734375 63.14453125 C-59.82140625 62.40976563 -60.61546875 61.675 -61.43359375 60.91796875 C-69.1344778 53.01594221 -69.99303307 43.53008679 -69.87817383 32.90966797 C-69.56825605 23.2206594 -66.82632888 17.01930659 -60.52734375 9.76953125 C-60.00140625 9.16109375 -59.47546875 8.55265625 -58.93359375 7.92578125 C-42.33657741 -9.9238401 -21.10206912 -8.49811833 0 0 Z " fill="#FBFBFB" transform="translate(555.52734375,66.23046875)"/>
<path d="M0 0 C2.3125 0.4296875 2.3125 0.4296875 4.875 2.2421875 C7.6278819 6.43135561 7.78792774 10.56303629 7.3125 15.4296875 C6.67030532 18.31703525 5.8722158 20.90355957 4.3125 23.4296875 C1.6875 24.6171875 1.6875 24.6171875 -0.6875 25.4296875 C-2.13713453 29.64680613 -1.35047335 32.97506947 -0.375 37.2421875 C0.56738072 41.36612749 1.37752982 45.347728 1.57421875 49.58203125 C1.9537515 56.902584 2.89842442 62.24324517 8.4375 67.5546875 C10.35571832 69.22685164 12.31227598 70.85653833 14.3125 72.4296875 C15.08078125 73.05617188 15.8490625 73.68265625 16.640625 74.328125 C19.4221853 76.50453668 22.12814138 78.3316244 25.25 79.9921875 C27.3125 81.4296875 27.3125 81.4296875 28.25 83.9296875 C28.3125 86.4296875 28.3125 86.4296875 26.3125 89.4296875 C23.1875 90.1796875 23.1875 90.1796875 19.3125 89.4296875 C17.10778784 87.35699403 15.27714492 85.12077826 13.37890625 82.765625 C10.47810789 79.48646164 7.15239056 77.46197 3.3125 75.4296875 C2.70084533 82.18611909 4.88801713 87.34146581 7.375 93.5546875 C8.2115554 95.70838665 9.04483486 97.86336085 9.875 100.01953125 C10.29007813 101.09702637 10.70515625 102.17452148 11.1328125 103.28466797 C12.84660599 107.85360169 14.37164657 112.47559482 15.875 117.1171875 C18.25857679 124.40861995 20.79318143 131.62661033 23.5 138.8046875 C23.82105713 139.66666748 24.14211426 140.52864746 24.47290039 141.41674805 C25.37430759 143.77633449 26.32442384 146.1052113 27.3125 148.4296875 C27.59464355 149.12940674 27.87678711 149.82912598 28.16748047 150.55004883 C29.11457534 152.75161089 29.11457534 152.75161089 31.3125 155.4296875 C34.24859889 156.15121818 36.13963948 156.41415218 39.0625 156.3671875 C39.75988281 156.38330078 40.45726562 156.39941406 41.17578125 156.41601562 C42.88766554 156.45119133 44.60031924 156.44459455 46.3125 156.4296875 C46.6425 157.7496875 46.9725 159.0696875 47.3125 160.4296875 C45.47674128 161.12242664 43.64023984 161.81323967 41.80078125 162.49609375 C40.04255339 163.15577422 38.29044595 163.83187802 36.54296875 164.51953125 C27.51054726 167.99163855 27.51054726 167.99163855 22.3125 167.4296875 C21.8175 165.91375 21.8175 165.91375 21.3125 164.3671875 C19.72651212 160.10012488 17.61731457 156.16494405 15.4375 152.1796875 C13.05008718 147.81168557 10.85423312 143.52165211 9.0625 138.8671875 C6.58168154 132.63092316 3.39742752 126.81280838 0.1875 120.9296875 C-0.60382324 119.47647095 -0.60382324 119.47647095 -1.41113281 117.99389648 C-3.64546037 113.94088888 -5.83344848 110.08404822 -8.6875 106.4296875 C-8.85652832 106.98615967 -9.02555664 107.54263184 -9.19970703 108.1159668 C-14.3122069 124.48969347 -21.99881788 137.4163867 -31.99804688 151.24169922 C-33.90658135 153.96614056 -34.6875 155.13389534 -34.6875 158.5546875 C-33.56250305 161.78905372 -32.11100272 163.08436228 -29.6875 165.4296875 C-29.6875 166.7496875 -29.6875 168.0696875 -29.6875 169.4296875 C-32.54206527 169.9881894 -33.91670575 170.16758861 -36.6875 169.4296875 C-40.33417155 166.73951996 -43.50761727 163.65026342 -46.6875 160.4296875 C-47.3475 159.7696875 -48.0075 159.1096875 -48.6875 158.4296875 C-49.25 155.8671875 -49.25 155.8671875 -48.6875 152.4296875 C-47.19335315 150.2818514 -45.5140988 148.33612395 -43.83203125 146.33203125 C-39.71069388 140.75433787 -36.77448969 134.43007844 -33.65991211 128.25048828 C-32.6875 126.4296875 -32.6875 126.4296875 -31.01953125 124.0625 C-28.92883233 119.93015081 -28.6547403 115.61758971 -28.125 111.0546875 C-28.00205566 110.07967285 -27.87911133 109.1046582 -27.75244141 108.10009766 C-27.50498613 106.13436473 -27.26208737 104.16805243 -27.02392578 102.20117188 C-26.56236959 98.39885992 -26.06526213 94.60172482 -25.5625 90.8046875 C-25.41554688 89.65742188 -25.26859375 88.51015625 -25.1171875 87.328125 C-24.6875 84.4296875 -24.6875 84.4296875 -24.13671875 82.296875 C-23.63162687 80.19744963 -23.58907068 78.3354468 -23.625 76.1796875 C-23.645625 74.9421875 -23.66625 73.7046875 -23.6875 72.4296875 C-26.0593703 79.67195168 -28.11146044 86.73137095 -29.1953125 94.28515625 C-29.6875 96.4296875 -29.6875 96.4296875 -31.6875 98.4296875 C-34.75 98.6171875 -34.75 98.6171875 -37.6875 98.4296875 C-39.21959716 96.89759034 -38.89364547 95.49778697 -38.9375 93.3671875 C-38.96328125 92.63371094 -38.9890625 91.90023437 -39.015625 91.14453125 C-38.65220151 88.13763451 -37.63433941 85.65187936 -36.52539062 82.8503418 C-34.78676823 77.82748602 -33.89337993 72.56283814 -32.8125 67.3671875 C-26.34063321 37.35557068 -26.34063321 37.35557068 -17.5 29.2421875 C-14.16793923 25.91012673 -13.5777712 23.89099522 -13.546875 19.375 C-13.52753906 18.59511719 -13.50820312 17.81523438 -13.48828125 17.01171875 C-13.45459364 15.38175659 -13.43621062 13.7514019 -13.43359375 12.12109375 C-13.30036314 7.86472636 -13.04807325 5.92034498 -10.45703125 2.39453125 C-6.70835404 -0.26496753 -4.45313172 -0.22530726 0 0 Z " fill="#0F0F0F" transform="translate(1179.6875,44.5703125)"/>
<path d="M0 0 C2.92788136 2.83915768 3.19640038 5.5149231 3.375 9.4375 C3.21574603 13.59195139 2.44465808 16.54375926 0 20 C-2.6875 21.375 -2.6875 21.375 -5 22 C-4.68215172 26.76772418 -3.54103293 30.19191702 -1.4375 34.5 C0.63502604 38.87933762 1.80330283 42.07977018 1 47 C-0.5 49.4375 -0.5 49.4375 -2 51 C-0.43775577 54.42091428 1.57888702 57.29306525 3.8125 60.3125 C4.52019531 61.28316406 5.22789063 62.25382812 5.95703125 63.25390625 C7.15620343 64.86579543 8.37472136 66.46415367 9.63671875 68.02734375 C12.86824143 72.11072914 13.52760179 74.82950246 13 80 C10.525 80.495 10.525 80.495 8 81 C6 78 6 78 5.4375 75.3125 C3.86308005 71.68448881 2.37233801 70.34060249 -0.58984375 67.79296875 C-1.41218506 67.08035889 -2.23452637 66.36774902 -3.08178711 65.63354492 C-3.71479736 65.0944751 -4.34780762 64.55540527 -5 64 C-4.823479 64.82910889 -4.64695801 65.65821777 -4.46508789 66.51245117 C1.42137922 94.50462509 1.42137922 94.50462509 2 107.125 C2.04116943 107.96313232 2.08233887 108.80126465 2.12475586 109.66479492 C2.23828782 113.90435205 2.15120744 117.29941101 0 121 C-0.81855469 121.72058594 -1.63710937 122.44117188 -2.48046875 123.18359375 C-6.02071265 127.14098267 -6.47624914 130.92144228 -7.3125 136.0625 C-7.55722046 137.46508057 -7.55722046 137.46508057 -7.80688477 138.89599609 C-9.59457024 148.92901288 -9.59457024 148.92901288 -9 159 C-7.0208667 161.6571697 -4.90073568 162.6243369 -1.8125 163.6875 C-1.09707031 163.93886719 -0.38164063 164.19023437 0.35546875 164.44921875 C0.89816406 164.63097656 1.44085937 164.81273437 2 165 C2 165.99 2 166.98 2 168 C-5.26 168 -12.52 168 -20 168 C-21 163 -21 163 -20 160 C-19.59038064 151.62689833 -20.1970519 143.3305865 -21 135 C-25.62 138.3 -30.24 141.6 -35 145 C-34.3786131 149.3497083 -33.73894837 153.67187386 -33 158 C-34.32 158.33 -35.64 158.66 -37 159 C-40.3 154.38 -43.6 149.76 -47 145 C-45.02679809 141.05359619 -43.72229948 139.68768423 -40.4375 136.9375 C-35.7435936 132.83878635 -31.96653228 128.40350181 -28.109375 123.52734375 C-24.95439679 119.74721245 -21.44830499 116.22415249 -17 114 C-18.70865912 106.79065757 -21.05624305 100.02841816 -23.93017578 93.21655273 C-28.3519062 82.61935516 -27.22358256 74.82921481 -23.875 64.07421875 C-22.86312374 61.05181951 -22.86312374 61.05181951 -23 58 C-24.10657994 60.97827568 -25.20980534 63.95778385 -26.3125 66.9375 C-26.62123047 67.76830078 -26.92996094 68.59910156 -27.24804688 69.45507812 C-29.27418869 74.93632492 -31.18836871 80.44416272 -33 86 C-34.99954746 86.04254356 -37.00041636 86.04080783 -39 86 C-40 85 -40 85 -40.25 82.6875 C-40 80 -40 80 -38.62109375 78.421875 C-36.17596243 74.76890773 -35.69008025 70.82680387 -34.8125 66.5625 C-32.91036313 57.95392927 -30.27257107 49.94329847 -27.02392578 41.75830078 C-24.69520732 35.87644065 -22.5839101 29.97306801 -20.6875 23.9375 C-20.44008057 23.15415283 -20.19266113 22.37080566 -19.93774414 21.5637207 C-18.55803331 17.09597223 -17.45927035 12.64260007 -16.5 8.0625 C-15.57824748 4.28013622 -15.1215571 3.13023975 -12.375 0.1875 C-7.95000067 -1.36944421 -4.469458 -1.48105569 0 0 Z " fill="#111111" transform="translate(1108,46)"/>
<path d="M0 0 C3 1 3 1 4.32421875 3.45703125 C4.77410156 4.56433594 5.22398437 5.67164062 5.6875 6.8125 C6.0589917 7.72020142 6.0589917 7.72020142 6.43798828 8.64624023 C6.99032778 10.00114015 7.53754294 11.35813643 8.08056641 12.71679688 C9.08904676 15.22112728 10.12752656 17.71191252 11.16796875 20.203125 C11.90455925 21.98920691 12.64024276 23.77566315 13.375 25.5625 C13.73295654 26.41884033 14.09091309 27.27518066 14.4597168 28.1574707 C14.79011963 28.97304443 15.12052246 29.78861816 15.4609375 30.62890625 C15.75790527 31.35150635 16.05487305 32.07410645 16.36083984 32.81860352 C17.08738884 35.29825031 17.11104292 37.42938463 17 40 C13.95303929 41.52348035 10.77919939 41.14211557 7.4375 41.1328125 C6.69040771 41.13376923 5.94331543 41.13472595 5.17358398 41.13571167 C3.59326086 41.13639249 2.01293494 41.13454503 0.43261719 41.13037109 C-1.9902981 41.12502142 -4.413028 41.13031935 -6.8359375 41.13671875 C-8.36979208 41.13605795 -9.90364654 41.13477675 -11.4375 41.1328125 C-12.16461182 41.13483673 -12.89172363 41.13686096 -13.64086914 41.13894653 C-18.77007639 41.1149618 -18.77007639 41.1149618 -21 40 C-20.60742471 33.73945715 -17.49630949 29.13520172 -14.375 23.875 C-13.56228638 22.4813623 -13.56228638 22.4813623 -12.7331543 21.05957031 C-11.65556205 19.21355618 -10.5741881 17.36974361 -9.48876953 15.52832031 C-8.20942476 13.35565806 -6.94191434 11.17706378 -5.68359375 8.9921875 C-1.16844729 1.16844729 -1.16844729 1.16844729 0 0 Z " fill="#040404" transform="translate(212,102)"/>
<path d="M0 0 C3.60549148 2.66492848 4.84539972 4.03804272 5.5625 8.5 C4.91877781 12.50538252 3.84054174 14.15945826 1 17 C-1.85324437 18.42662219 -3.83454549 18.31033868 -7 18 C-9.69990662 16.20006226 -11.5418865 14.916227 -13 12 C-13.375 8.6875 -13.375 8.6875 -13 5 C-8.80917048 -0.07310942 -6.43484496 -1.76642803 0 0 Z " fill="#999999" transform="translate(829,187)"/>
<path d="M0 0 C0.66 0.33 1.32 0.66 2 1 C2.29296875 7.0546875 2.29296875 7.0546875 2 9 C1.01 9.66 0.02 10.32 -1 11 C-1 10.01 -1 9.02 -1 8 C-2.4540625 8.0309375 -2.4540625 8.0309375 -3.9375 8.0625 C-7 8 -7 8 -8 7 C-8.04063832 5.33382885 -8.042721 3.66611905 -8 2 C-7.236875 1.855625 -6.47375 1.71125 -5.6875 1.5625 C-2.91827092 1.0367406 -2.91827092 1.0367406 0 0 Z " fill="#050505" transform="translate(830,191)"/>
<path d="M0 0 C0.94875 0.04125 1.8975 0.0825 2.875 0.125 C3.205 1.115 3.535 2.105 3.875 3.125 C1.895 3.125 -0.085 3.125 -2.125 3.125 C-2.125 4.775 -2.125 6.425 -2.125 8.125 C0.845 8.62 0.845 8.62 3.875 9.125 C3.875 9.785 3.875 10.445 3.875 11.125 C0.5 11.25 0.5 11.25 -3.125 11.125 C-5.125 9.125 -5.125 9.125 -5.375 5.625 C-5.05328869 1.12104166 -4.56738407 0.18269536 0 0 Z " fill="#DFDFDF" transform="translate(825.125,189.875)"/>
<path d="M0 0 C0.33 0 0.66 0 1 0 C1.66 1.98 2.32 3.96 3 6 C5.31 6.33 7.62 6.66 10 7 C10 7.66 10 8.32 10 9 C2.66165414 9.36090226 2.66165414 9.36090226 -0.0625 7.875 C-1.46771358 5.06457284 -0.72549141 2.96791942 0 0 Z " fill="#2E2E2E" transform="translate(819,194)"/>
<path d="M0 0 C0.66 0.33 1.32 0.66 2 1 C1.21625 1.763125 0.4325 2.52625 -0.375 3.3125 C-3.07257717 5.90891805 -3.07257717 5.90891805 -5 9 C-4.50769231 3.46153846 -4.50769231 3.46153846 -1.9375 1.125 C-1.298125 0.75375 -0.65875 0.3825 0 0 Z " fill="#666666" transform="translate(1172,45)"/>
</svg>
